<?xml version="1.0" encoding="utf-8"?>
<!-- Generator: Adobe Illustrator 21.1.0, SVG Export Plug-In . SVG Version: 6.00 Build 0)  -->
<svg version="1.1" id="레이어_1" xmlns="http://www.w3.org/2000/svg" xmlns:xlink="http://www.w3.org/1999/xlink" x="0px"
	 y="0px" viewBox="0 0 1024 1024" style="enable-background:new 0 0 1024 1024;" xml:space="preserve">
<style type="text/css">
	.st0{fill:#FFFFFF;}
	.st1{fill:#7089BA;}
	.st2{fill:#EFD251;}
	.st3{fill:#6D82A1;}
</style>
<g>
	<path class="st0" d="M409.1,614c-2.5,0-5.1-0.3-7.6-0.9l-107.7-26.8L186,613.1c-9.4,2.3-19.2,0.3-26.9-5.7c-7.6-6-12-15-12-24.7
		V441.3c0-9.7,4.4-18.7,12-24.7c7.6-6,17.4-8.1,26.9-5.7l107.7,26.8l107.7-26.8c9.4-2.3,19.2-0.3,26.9,5.7c7.6,6,12,15,12,24.7
		v141.4c0,9.7-4.4,18.7-12,24.7C422.7,611.7,416,614,409.1,614z M293.7,556.2l114.8,28.6c0.7,0.2,1.3,0,1.9-0.4
		c0.6-0.4,0.8-1,0.8-1.7V441.3c0-0.7-0.3-1.3-0.8-1.7c-0.6-0.4-1.2-0.6-1.9-0.4l-114.8,28.6L179,439.2c-0.7-0.2-1.3,0-1.9,0.4
		c-0.6,0.4-0.8,1-0.8,1.7v141.4c0,0.7,0.3,1.3,0.8,1.7c0.6,0.4,1.2,0.6,1.9,0.4L293.7,556.2z"/>
	<g>
		<path class="st1" d="M174.4,541.5L405,598.9c10.6,2.6,20.8-5.4,20.8-16.2v-83.9c0-7.7-5.2-14.4-12.7-16.2l-230.6-57.4
			c-10.6-2.6-20.8,5.4-20.8,16.2v83.9C161.7,532.9,166.9,539.6,174.4,541.5z"/>
		<path class="st2" d="M413.1,541.5l-230.6,57.4c-10.6,2.6-20.8-5.4-20.8-16.2v-83.9c0-7.7,5.2-14.4,12.7-16.2L405,425.1
			c10.6-2.6,20.8,5.4,20.8,16.2v83.9C425.8,532.9,420.5,539.6,413.1,541.5z"/>
		<path class="st3" d="M413.1,482.5l-119.3-29.7l-119.3,29.7c-7.5,1.9-12.7,8.6-12.7,16.2v26.5c0,7.7,5.2,14.4,12.7,16.2l119.3,29.7
			l119.3-29.7c7.5-1.9,12.7-8.6,12.7-16.2v-26.5C425.8,491.1,420.5,484.4,413.1,482.5z"/>
	</g>
	<g>
		<g>
			<path class="st0" d="M513.2,543.3c-12.5,0-22.3-3.8-29.7-11.3c-7.3-7.5-11-18.1-11-31.7c0-13.2,3.7-23.7,11-31.5
				c7.3-7.8,17.2-11.7,29.7-11.8c3.3,0,6.3,0.2,8.9,0.6c2.6,0.4,5.2,0.9,7.6,1.6c1.9,0.6,4,1.3,6.2,2.3c2.2,1,4,1.8,5.4,2.5l0,19.8
				l-2.1,0c-1-0.9-2.3-2-3.8-3.2c-1.5-1.2-3.3-2.5-5.2-3.6c-1.9-1.2-4.1-2.2-6.4-3c-2.3-0.8-4.7-1.3-7.3-1.2c-3,0-5.8,0.5-8.3,1.4
				c-2.5,1-4.9,2.6-7.2,4.9c-2.1,2.1-3.8,5-5.1,8.6c-1.3,3.6-2,7.9-2,12.8c0,5.2,0.7,9.5,2.1,13c1.4,3.5,3.2,6.3,5.4,8.5
				c2.2,2.1,4.6,3.6,7.2,4.5c2.7,0.9,5.3,1.4,7.9,1.4c2.8,0,5.4-0.5,7.9-1.4c2.5-0.9,4.6-1.9,6.3-3c1.9-1.2,3.5-2.3,4.9-3.5
				c1.4-1.2,2.6-2.2,3.7-3.2l1.9,0l0,19.5c-1.5,0.7-3.3,1.5-5.3,2.4c-2,0.9-4.1,1.7-6.2,2.3c-2.6,0.8-5,1.4-7.3,1.8
				C520.3,543.1,517.1,543.3,513.2,543.3z"/>
			<path class="st0" d="M610.6,510.3c0,10.3-2.8,18.4-8.4,24.3c-5.6,5.9-13.6,8.9-23.9,8.9c-10.2,0-18.2-3-23.8-8.9
				c-5.7-5.9-8.5-14-8.5-24.3c0-10.4,2.8-18.6,8.5-24.5c5.7-5.9,13.6-8.8,23.8-8.9c10.3,0,18.2,3,23.9,8.9
				C607.8,491.9,610.6,500,610.6,510.3z M590.6,510.5c0-3.7-0.3-6.8-0.9-9.3c-0.6-2.5-1.5-4.5-2.5-5.9c-1.2-1.6-2.5-2.6-3.9-3.3
				s-3.1-0.9-5-0.9c-1.7,0-3.3,0.3-4.7,0.8c-1.4,0.5-2.7,1.6-3.9,3.1c-1.1,1.5-2,3.4-2.7,6c-0.7,2.5-1,5.7-1,9.5
				c0,3.8,0.3,6.9,1,9.3s1.5,4.2,2.5,5.7c1,1.4,2.3,2.5,3.9,3.2c1.6,0.7,3.3,1,5.2,1c1.6,0,3.2-0.3,4.8-1c1.6-0.7,2.9-1.7,3.9-3
				c1.2-1.6,2-3.5,2.6-5.8C590.3,517.6,590.6,514.5,590.6,510.5z"/>
			<path class="st0" d="M638.4,470.1l-20.6,0l0-15.2l20.6,0L638.4,470.1z M637.9,541.6l-19.5,0l0-62.6l19.5,0L637.9,541.6z"/>
			<path class="st0" d="M708.1,541.6l-19.6,0l0-31.1c0-2.5-0.1-5-0.3-7.6c-0.2-2.5-0.6-4.4-1.1-5.5c-0.7-1.4-1.6-2.4-2.9-3
				c-1.3-0.6-3-0.9-5.1-0.9c-1.6,0-3.2,0.3-4.8,0.9c-1.6,0.6-3.4,1.5-5.2,2.8l0,44.4l-19.5,0l0-62.6l19.5,0l0,6.9
				c3.2-2.7,6.3-4.8,9.3-6.4c3-1.5,6.4-2.3,10.1-2.3c6.4,0,11.3,2,14.7,6c3.4,4,5.1,9.9,5.1,17.5L708.1,541.6z"/>
			<path class="st0" d="M787,516.1c0,4.1-0.8,7.8-2.3,10.9c-1.6,3.1-3.7,5.7-6.3,7.8c-3.1,2.5-6.5,4.2-10.3,5.2
				c-3.7,1-8.5,1.6-14.2,1.6l-33.2,0l0-83l29.3,0c6.1,0,10.7,0.2,13.9,0.7c3.1,0.5,6.1,1.4,8.8,2.9c3,1.6,5.2,3.7,6.7,6.4
				s2.2,5.8,2.2,9.3c0,4.1-1,7.7-3,10.8c-2,3.2-4.8,5.5-8.4,7v0.4c5.1,1.1,9.2,3.3,12.3,6.6C785.4,506,787,510.4,787,516.1z
				 M760.3,482c0-1.3-0.3-2.7-1-4.1c-0.7-1.4-1.8-2.4-3.2-3.1c-1.4-0.6-3-0.9-4.9-1s-4.7-0.1-8.4-0.1l-1.5,0l0,17.6l2.6,0
				c3.6,0,6.1,0,7.5-0.1c1.4-0.1,2.9-0.5,4.4-1.2c1.7-0.8,2.8-1.9,3.5-3.2C759.9,485.4,760.3,483.8,760.3,482z M765.5,515.7
				c0-2.6-0.5-4.6-1.6-6c-1-1.4-2.6-2.5-4.7-3.3c-1.3-0.5-3-0.8-5.2-0.8c-2.2-0.1-5.2-0.1-8.9-0.1l-3.8,0l0,20.8l1.1,0
				c5.4,0,9.2,0,11.3-0.1c2.1-0.1,4.2-0.6,6.4-1.5c1.9-0.8,3.3-2,4.2-3.6C765.1,519.5,765.5,517.7,765.5,515.7z"/>
			<path class="st0" d="M815.3,470l-20.6,0l0-15.2l20.6,0L815.3,470z M814.8,541.5l-19.5,0l0-62.6l19.5,0L814.8,541.5z"/>
			<path class="st0" d="M845.8,541.5l-19.5,0l-0.1-86.8l19.5,0L845.8,541.5z"/>
			<path class="st0" d="M876.9,541.5l-19.5,0l-0.1-86.8l19.5,0L876.9,541.5z"/>
		</g>
		<g>
			<path class="st0" d="M483.7,582.1l0-14.7l-5.4,0l0-3.5l15.3,0l0,3.5l-5.4,0l0,14.7L483.7,582.1z"/>
			<path class="st0" d="M502.3,572.5H502c-0.2-0.1-0.4-0.1-0.7-0.1c-0.3,0-0.7,0-1,0c-0.4,0-0.9,0.1-1.4,0.2c-0.5,0.1-1,0.3-1.4,0.5
				l0,9.2l-4.3,0l0-13.7l4.3,0l0,2c0.2-0.2,0.5-0.4,0.8-0.7c0.3-0.3,0.7-0.5,0.9-0.7c0.3-0.2,0.7-0.3,1.1-0.5
				c0.4-0.1,0.8-0.2,1.2-0.2c0.1,0,0.3,0,0.5,0c0.2,0,0.3,0,0.5,0L502.3,572.5z"/>
			<path class="st0" d="M511.2,580.7c-0.3,0.2-0.6,0.5-0.8,0.7c-0.2,0.2-0.5,0.4-0.9,0.6c-0.4,0.2-0.8,0.3-1.1,0.4
				c-0.4,0.1-0.9,0.1-1.5,0.1c-1.2,0-2.2-0.4-3-1.2c-0.8-0.8-1.2-1.8-1.2-3.1c0-1,0.2-1.8,0.6-2.5c0.4-0.6,1-1.1,1.8-1.5
				c0.8-0.4,1.7-0.6,2.8-0.8c1.1-0.1,2.2-0.3,3.5-0.3V573c0-0.8-0.3-1.3-0.8-1.6c-0.6-0.3-1.4-0.4-2.5-0.4c-0.5,0-1.1,0.1-1.8,0.3
				c-0.7,0.2-1.3,0.4-2,0.7h-0.4l0-3.3c0.4-0.1,1.1-0.3,2-0.4c0.9-0.2,1.9-0.3,2.9-0.3c2.4,0,4.1,0.4,5.2,1.2s1.6,2,1.6,3.6l0,9.3
				l-4.2,0L511.2,580.7z M511.2,578.5l0-2.9c-0.7,0.1-1.3,0.1-1.8,0.2c-0.4,0.1-0.9,0.2-1.3,0.3c-0.4,0.1-0.7,0.3-0.9,0.6
				s-0.3,0.6-0.3,1.1c0,0.6,0.2,1.1,0.5,1.3s0.9,0.4,1.5,0.4c0.4,0,0.8-0.1,1.1-0.3C510.5,579.1,510.8,578.9,511.2,578.5z"/>
			<path class="st0" d="M531,582.1l-4.3,0l0-6.8c0-0.6,0-1.1-0.1-1.7c0-0.5-0.1-1-0.3-1.2c-0.1-0.3-0.4-0.5-0.6-0.7
				c-0.3-0.1-0.6-0.2-1.1-0.2c-0.3,0-0.7,0.1-1.1,0.2c-0.4,0.1-0.7,0.3-1.1,0.6l0,9.7l-4.3,0l0-13.7l4.3,0l0,1.5
				c0.7-0.6,1.4-1.1,2-1.4c0.7-0.3,1.4-0.5,2.2-0.5c1.4,0,2.5,0.4,3.2,1.3c0.7,0.9,1.1,2.2,1.1,3.8L531,582.1z"/>
			<path class="st0" d="M538.2,582.5c-1,0-2-0.1-2.9-0.3c-0.9-0.2-1.6-0.5-2.2-0.8l0-3.6h0.4c0.2,0.2,0.4,0.3,0.7,0.5
				c0.3,0.2,0.6,0.4,1.1,0.6c0.4,0.2,0.8,0.3,1.3,0.5c0.5,0.1,1,0.2,1.6,0.2c0.6,0,1.1-0.1,1.6-0.3s0.7-0.5,0.7-0.9
				c0-0.3-0.1-0.6-0.3-0.7c-0.2-0.2-0.6-0.3-1.2-0.5c-0.3-0.1-0.7-0.2-1.2-0.3c-0.5-0.1-0.9-0.2-1.3-0.3c-1.1-0.3-1.9-0.8-2.4-1.5
				c-0.5-0.7-0.8-1.5-0.8-2.6c0-0.6,0.1-1.2,0.4-1.7c0.3-0.5,0.7-1,1.2-1.4c0.5-0.4,1.2-0.7,2-1c0.8-0.2,1.7-0.4,2.7-0.4
				c1,0,1.8,0.1,2.6,0.3c0.8,0.2,1.5,0.4,2,0.7l0,3.5h-0.3c-0.1-0.1-0.4-0.3-0.7-0.5c-0.3-0.2-0.6-0.4-0.9-0.5
				c-0.4-0.2-0.8-0.3-1.2-0.4c-0.4-0.1-0.9-0.2-1.4-0.2c-0.6,0-1.1,0.1-1.6,0.3c-0.4,0.2-0.6,0.5-0.6,0.8c0,0.3,0.1,0.6,0.3,0.7
				s0.7,0.4,1.4,0.5c0.4,0.1,0.8,0.2,1.3,0.3c0.5,0.1,0.9,0.2,1.4,0.3c1,0.3,1.7,0.8,2.2,1.4c0.5,0.6,0.8,1.4,0.8,2.4
				c0,0.6-0.2,1.3-0.5,1.8c-0.3,0.6-0.7,1.1-1.3,1.5c-0.6,0.4-1.3,0.8-2.1,1C540.3,582.4,539.3,582.5,538.2,582.5z"/>
			<path class="st0" d="M554.5,580.6c-0.3,0.2-0.6,0.5-0.8,0.7c-0.2,0.2-0.5,0.4-0.9,0.6c-0.4,0.2-0.8,0.3-1.1,0.4
				c-0.4,0.1-0.9,0.1-1.5,0.1c-1.2,0-2.2-0.4-3-1.2c-0.8-0.8-1.2-1.8-1.2-3.1c0-1,0.2-1.8,0.6-2.5c0.4-0.6,1-1.1,1.8-1.5
				c0.8-0.4,1.7-0.6,2.8-0.8c1.1-0.1,2.2-0.3,3.5-0.3V573c0-0.8-0.3-1.3-0.8-1.6c-0.6-0.3-1.4-0.4-2.5-0.4c-0.5,0-1.1,0.1-1.8,0.3
				c-0.7,0.2-1.3,0.4-2,0.7H547l0-3.3c0.4-0.1,1.1-0.3,2-0.4s1.9-0.3,2.9-0.3c2.4,0,4.1,0.4,5.2,1.2c1.1,0.8,1.6,2,1.6,3.6l0,9.3
				l-4.2,0L554.5,580.6z M554.5,578.5l0-2.9c-0.7,0.1-1.3,0.1-1.8,0.2c-0.4,0.1-0.9,0.2-1.3,0.3c-0.4,0.1-0.7,0.3-0.9,0.6
				c-0.2,0.3-0.3,0.6-0.3,1.1c0,0.6,0.2,1.1,0.5,1.3c0.3,0.2,0.9,0.4,1.5,0.4c0.4,0,0.8-0.1,1.1-0.3
				C553.8,579.1,554.2,578.8,554.5,578.5z"/>
			<path class="st0" d="M568.3,582.4c-1.1,0-2.2-0.1-3.1-0.4c-0.9-0.3-1.8-0.7-2.4-1.3c-0.7-0.6-1.2-1.3-1.6-2.2
				c-0.4-0.9-0.6-2-0.6-3.2c0-1.3,0.2-2.4,0.6-3.3c0.4-0.9,1-1.7,1.7-2.3c0.7-0.6,1.5-1,2.4-1.3c0.9-0.3,1.9-0.4,2.9-0.4
				c0.8,0,1.5,0.1,2.3,0.3c0.8,0.2,1.5,0.5,2.3,0.8l0,3.7l-0.5,0c-0.2-0.2-0.4-0.3-0.6-0.5c-0.2-0.2-0.5-0.4-0.8-0.5
				c-0.3-0.2-0.7-0.3-1-0.4c-0.4-0.1-0.8-0.2-1.3-0.2c-1.1,0-1.9,0.4-2.5,1.1c-0.6,0.8-0.9,1.8-0.9,3.1c0,1.4,0.3,2.4,1,3.1
				s1.5,1,2.5,1c0.5,0,1-0.1,1.4-0.2c0.4-0.1,0.8-0.3,1-0.4c0.3-0.2,0.5-0.3,0.7-0.5c0.2-0.2,0.4-0.3,0.5-0.5l0.5,0l0,3.7
				c-0.2,0.1-0.5,0.2-0.8,0.4c-0.3,0.1-0.6,0.3-1,0.3c-0.4,0.1-0.8,0.2-1.2,0.3C569.4,582.4,568.9,582.4,568.3,582.4z"/>
			<path class="st0" d="M580.2,582.3c-1.7,0-3-0.4-3.8-1.1c-0.8-0.7-1.2-1.9-1.2-3.5l0-6.4l-1.6,0l0-3l1.6,0l0-3.9l4.3,0l0,3.9
				l4.1,0l0,3l-4.1,0l0,4.9c0,0.5,0,0.9,0,1.3c0,0.4,0.1,0.7,0.2,1c0.1,0.3,0.3,0.5,0.6,0.7c0.3,0.2,0.7,0.2,1.3,0.2
				c0.2,0,0.5,0,0.9-0.1c0.4-0.1,0.6-0.2,0.8-0.3h0.4l0,3c-0.5,0.1-1,0.2-1.5,0.3C581.6,582.3,581,582.3,580.2,582.3z"/>
			<path class="st0" d="M589.8,566.4l-4.5,0l0-3.3l4.5,0L589.8,566.4z M589.6,582.1l-4.3,0l0-13.7l4.3,0L589.6,582.1z"/>
			<path class="st0" d="M605.8,575.2c0,2.3-0.6,4-1.8,5.3s-3,1.9-5.2,1.9c-2.2,0-4-0.6-5.2-1.9s-1.9-3.1-1.9-5.3
				c0-2.3,0.6-4.1,1.9-5.3c1.2-1.3,3-1.9,5.2-1.9c2.2,0,4,0.6,5.2,1.9C605.1,571.2,605.8,573,605.8,575.2z M601.4,575.2
				c0-0.8-0.1-1.5-0.2-2c-0.1-0.5-0.3-1-0.6-1.3c-0.3-0.3-0.5-0.6-0.9-0.7c-0.3-0.1-0.7-0.2-1.1-0.2c-0.4,0-0.7,0.1-1,0.2
				c-0.3,0.1-0.6,0.3-0.9,0.7c-0.2,0.3-0.4,0.8-0.6,1.3s-0.2,1.2-0.2,2.1c0,0.8,0.1,1.5,0.2,2c0.1,0.5,0.3,0.9,0.5,1.2
				c0.2,0.3,0.5,0.5,0.9,0.7c0.3,0.1,0.7,0.2,1.1,0.2c0.3,0,0.7-0.1,1-0.2s0.6-0.4,0.8-0.7c0.3-0.3,0.4-0.8,0.6-1.3
				C601.3,576.8,601.4,576.1,601.4,575.2z"/>
			<path class="st0" d="M620.6,582l-4.3,0l0-6.8c0-0.6,0-1.1-0.1-1.7c0-0.5-0.1-1-0.3-1.2c-0.1-0.3-0.4-0.5-0.6-0.7
				c-0.3-0.1-0.6-0.2-1.1-0.2c-0.3,0-0.7,0.1-1.1,0.2c-0.4,0.1-0.7,0.3-1.1,0.6l0,9.7l-4.3,0l0-13.7l4.3,0l0,1.5
				c0.7-0.6,1.4-1.1,2-1.4c0.7-0.3,1.4-0.5,2.2-0.5c1.4,0,2.5,0.4,3.2,1.3s1.1,2.2,1.1,3.8L620.6,582z"/>
			<path class="st0" d="M638.6,580.6c-0.3,0.2-0.6,0.5-0.8,0.7c-0.2,0.2-0.5,0.4-0.9,0.6c-0.4,0.2-0.8,0.3-1.1,0.4
				c-0.4,0.1-0.9,0.1-1.5,0.1c-1.2,0-2.2-0.4-3-1.2c-0.8-0.8-1.2-1.8-1.2-3.1c0-1,0.2-1.8,0.6-2.5c0.4-0.6,1-1.1,1.8-1.5
				c0.8-0.4,1.7-0.6,2.8-0.8s2.2-0.3,3.5-0.3V573c0-0.8-0.3-1.3-0.8-1.6c-0.6-0.3-1.4-0.4-2.5-0.4c-0.5,0-1.1,0.1-1.8,0.3
				c-0.7,0.2-1.3,0.4-2,0.7h-0.4l0-3.3c0.4-0.1,1.1-0.3,2-0.4c0.9-0.2,1.9-0.3,2.9-0.3c2.4,0,4.1,0.4,5.2,1.2c1.1,0.8,1.6,2,1.6,3.6
				l0,9.3l-4.2,0L638.6,580.6z M638.6,578.5l0-2.9c-0.7,0.1-1.3,0.1-1.8,0.2c-0.4,0.1-0.9,0.2-1.3,0.3c-0.4,0.1-0.7,0.3-0.9,0.6
				c-0.2,0.3-0.3,0.6-0.3,1.1c0,0.6,0.2,1.1,0.5,1.3c0.3,0.2,0.9,0.4,1.5,0.4c0.4,0,0.8-0.1,1.1-0.3
				C638,579,638.3,578.8,638.6,578.5z"/>
			<path class="st0" d="M658.4,582l-4.3,0l0-6.8c0-0.6,0-1.1-0.1-1.7c0-0.5-0.1-1-0.3-1.2c-0.1-0.3-0.4-0.5-0.6-0.7
				c-0.3-0.1-0.6-0.2-1.1-0.2c-0.3,0-0.7,0.1-1.1,0.2c-0.4,0.1-0.7,0.3-1.1,0.6l0,9.7l-4.3,0l0-13.7l4.3,0l0,1.5
				c0.7-0.6,1.4-1.1,2-1.4c0.7-0.3,1.4-0.5,2.2-0.5c1.4,0,2.5,0.4,3.2,1.3c0.7,0.9,1.1,2.2,1.1,3.8L658.4,582z"/>
			<path class="st0" d="M673.8,582l-4.3,0l0-1.4c-0.3,0.2-0.6,0.5-0.9,0.7c-0.4,0.3-0.7,0.5-0.9,0.6c-0.3,0.2-0.7,0.3-1,0.4
				c-0.3,0.1-0.7,0.1-1.2,0.1c-1.6,0-2.8-0.6-3.7-1.9c-0.9-1.3-1.4-3-1.4-5.2c0-1.2,0.2-2.2,0.5-3.1c0.3-0.9,0.7-1.6,1.3-2.3
				c0.5-0.6,1.1-1.1,1.8-1.4c0.7-0.3,1.5-0.5,2.2-0.5c0.7,0,1.3,0.1,1.8,0.2c0.5,0.2,1,0.4,1.6,0.7l0-5.8l4.3,0L673.8,582z
				 M669.6,578.2l0-6.7c-0.2-0.1-0.5-0.2-0.8-0.3c-0.3-0.1-0.6-0.1-0.9-0.1c-1,0-1.8,0.4-2.3,1.1c-0.5,0.7-0.8,1.7-0.8,3
				c0,1.3,0.2,2.3,0.6,2.9c0.4,0.6,1.1,0.9,2,0.9c0.4,0,0.8-0.1,1.1-0.2C668.9,578.7,669.2,578.5,669.6,578.2z"/>
			<path class="st0" d="M697.8,575c0,2.2-0.6,3.9-1.7,5.3c-1.1,1.3-2.5,2-4.1,2c-0.7,0-1.3-0.1-1.8-0.2c-0.5-0.2-1-0.4-1.6-0.7
				l-0.2,0.7l-4.1,0l0-19l4.3,0l0,6.7c0.6-0.5,1.3-1,1.9-1.3c0.7-0.3,1.4-0.5,2.3-0.5c1.6,0,2.8,0.6,3.7,1.9
				C697.4,571,697.8,572.8,697.8,575z M693.5,575.1c0-1.4-0.2-2.3-0.6-2.9c-0.4-0.6-1.1-0.9-1.9-0.9c-0.4,0-0.8,0.1-1.1,0.2
				s-0.8,0.3-1.1,0.5l0,6.9c0.3,0.1,0.6,0.2,0.9,0.2c0.3,0,0.6,0.1,0.9,0.1c1,0,1.8-0.3,2.3-1C693.2,577.4,693.5,576.4,693.5,575.1z
				"/>
			<path class="st0" d="M704.3,566.3l-4.5,0l0-3.3l4.5,0L704.3,566.3z M704.2,582l-4.3,0l0-13.7l4.3,0L704.2,582z"/>
			<path class="st0" d="M711.3,582l-4.3,0l0-19l4.3,0L711.3,582z"/>
			<path class="st0" d="M718.4,582l-4.3,0l0-19l4.3,0L718.4,582z"/>
			<path class="st0" d="M725.6,566.3l-4.5,0l0-3.3l4.5,0L725.6,566.3z M725.5,582l-4.3,0l0-13.7l4.3,0L725.5,582z"/>
			<path class="st0" d="M741.1,582l-4.3,0l0-6.8c0-0.6,0-1.1-0.1-1.7c0-0.5-0.1-1-0.3-1.2c-0.1-0.3-0.4-0.5-0.6-0.7
				c-0.3-0.1-0.6-0.2-1.1-0.2c-0.3,0-0.7,0.1-1.1,0.2c-0.4,0.1-0.7,0.3-1.1,0.6l0,9.7l-4.3,0l0-13.7l4.3,0l0,1.5
				c0.7-0.6,1.4-1.1,2-1.4c0.7-0.3,1.4-0.5,2.2-0.5c1.4,0,2.5,0.4,3.2,1.3c0.7,0.9,1.1,2.2,1.1,3.8L741.1,582z"/>
			<path class="st0" d="M756.5,580.4c0,1.3-0.2,2.3-0.5,3.2c-0.4,0.9-0.9,1.6-1.5,2.1c-0.6,0.5-1.4,0.9-2.3,1.1
				c-0.9,0.2-1.9,0.3-3,0.3c-0.9,0-1.8-0.1-2.6-0.2c-0.8-0.1-1.5-0.3-2.1-0.4l0-3.4h0.5c0.2,0.1,0.5,0.2,0.8,0.3
				c0.3,0.1,0.6,0.2,0.9,0.3c0.3,0.1,0.7,0.2,1,0.2s0.7,0.1,1,0.1c0.7,0,1.3-0.1,1.8-0.2c0.5-0.2,0.8-0.4,1.1-0.6
				c0.2-0.3,0.4-0.6,0.5-1c0.1-0.4,0.1-0.9,0.1-1.5v-0.3c-0.5,0.4-1,0.8-1.7,1c-0.6,0.3-1.3,0.4-1.9,0.4c-1.8,0-3.1-0.6-4.1-1.7
				c-1-1.2-1.4-2.9-1.4-5.3c0-1.1,0.1-2,0.4-2.9s0.7-1.6,1.2-2.2c0.5-0.6,1.1-1,1.8-1.3s1.5-0.5,2.2-0.5c0.7,0,1.3,0.1,1.9,0.3
				c0.6,0.2,1.1,0.4,1.5,0.7l0.2-0.6l4.1,0L756.5,580.4z M752.2,577.7l0-6.2c-0.2-0.1-0.5-0.2-0.8-0.2c-0.3-0.1-0.6-0.1-0.9-0.1
				c-1,0-1.8,0.3-2.3,1c-0.5,0.7-0.8,1.6-0.8,2.8c0,0.6,0,1.1,0.1,1.5c0.1,0.4,0.2,0.8,0.4,1.1c0.2,0.3,0.5,0.5,0.8,0.7
				c0.3,0.2,0.8,0.2,1.3,0.2c0.4,0,0.8-0.1,1.1-0.2C751.6,578.1,751.9,577.9,752.2,577.7z"/>
			<path class="st0" d="M780.5,574.9c0,2.2-0.6,4-1.7,5.3c-1.1,1.3-2.5,2-4.1,2c-0.7,0-1.3-0.1-1.8-0.2c-0.5-0.2-1-0.4-1.6-0.7
				l0,5.7l-4.3,0l0-18.7l4.3,0l0,1.4c0.6-0.5,1.3-1,1.9-1.3c0.7-0.3,1.4-0.5,2.3-0.5c1.6,0,2.8,0.6,3.7,1.9
				C780.1,571,780.5,572.7,780.5,574.9z M776.2,575c0-1.3-0.2-2.3-0.6-2.9c-0.4-0.6-1.1-0.9-1.9-0.9c-0.4,0-0.8,0.1-1.1,0.2
				s-0.8,0.3-1.1,0.5l0,6.9c0.2,0.1,0.5,0.2,0.8,0.2c0.3,0,0.6,0.1,1,0.1c1,0,1.8-0.3,2.3-1C775.9,577.4,776.2,576.4,776.2,575z"/>
			<path class="st0" d="M786.9,581.9l-4.3,0l0-19l4.3,0L786.9,581.9z"/>
			<path class="st0" d="M797.4,580.5c-0.3,0.2-0.6,0.5-0.8,0.7s-0.5,0.4-0.9,0.6c-0.4,0.2-0.8,0.3-1.1,0.4c-0.4,0.1-0.9,0.1-1.5,0.1
				c-1.2,0-2.2-0.4-3-1.2c-0.8-0.8-1.2-1.8-1.2-3.1c0-1,0.2-1.8,0.6-2.5c0.4-0.6,1-1.1,1.8-1.5c0.8-0.4,1.7-0.6,2.8-0.8
				s2.2-0.3,3.5-0.3v-0.1c0-0.8-0.3-1.3-0.8-1.6c-0.6-0.3-1.4-0.4-2.5-0.4c-0.5,0-1.1,0.1-1.8,0.3c-0.7,0.2-1.3,0.4-2,0.7l-0.4,0
				l0-3.3c0.4-0.1,1.1-0.3,2-0.4c0.9-0.2,1.9-0.3,2.9-0.3c2.4,0,4.1,0.4,5.2,1.2s1.6,2,1.6,3.6l0,9.3l-4.2,0L797.4,580.5z
				 M797.4,578.4l0-2.9c-0.7,0.1-1.3,0.1-1.8,0.2c-0.4,0.1-0.9,0.2-1.3,0.3c-0.4,0.1-0.7,0.3-0.9,0.6c-0.2,0.3-0.3,0.6-0.3,1.1
				c0,0.6,0.2,1.1,0.5,1.3c0.3,0.2,0.9,0.4,1.5,0.4c0.4,0,0.8-0.1,1.1-0.3C796.8,578.9,797.1,578.7,797.4,578.4z"/>
			<path class="st0" d="M809.7,582.2c-1.7,0-3-0.4-3.8-1.1c-0.8-0.7-1.2-1.9-1.2-3.5l0-6.4l-1.6,0l0-3l1.6,0l0-3.9l4.3,0l0,3.9
				l4.1,0l0,3l-4.1,0l0,4.9c0,0.5,0,0.9,0,1.3c0,0.4,0.1,0.7,0.2,1c0.1,0.3,0.3,0.5,0.6,0.7c0.3,0.2,0.7,0.2,1.3,0.2
				c0.2,0,0.5,0,0.9-0.1c0.4-0.1,0.6-0.2,0.8-0.3h0.4l0,3c-0.5,0.1-1,0.2-1.5,0.3C811.1,582.2,810.5,582.2,809.7,582.2z"/>
			<path class="st0" d="M824,566.2h-0.3c-0.2,0-0.4-0.1-0.8-0.2c-0.3-0.1-0.7-0.1-1-0.1c-0.9,0-1.5,0.2-1.8,0.5
				c-0.3,0.3-0.5,0.9-0.5,1.8v0.1l3.4,0l0,3l-3.2,0l0,10.7l-4.3,0l0-10.7l-1.7,0l0-3l1.7,0v-0.4c0-1.7,0.4-2.9,1.3-3.8
				c0.9-0.8,2.2-1.3,4-1.3c0.6,0,1.2,0,1.7,0.1c0.5,0,1,0.1,1.4,0.2L824,566.2z"/>
			<path class="st0" d="M837.8,575.1c0,2.3-0.6,4-1.8,5.3c-1.2,1.3-3,1.9-5.2,1.9c-2.2,0-4-0.6-5.2-1.9c-1.2-1.3-1.9-3.1-1.9-5.3
				c0-2.3,0.6-4.1,1.9-5.3c1.2-1.3,3-1.9,5.2-1.9c2.2,0,4,0.6,5.2,1.9C837.2,571,837.8,572.8,837.8,575.1z M833.4,575.1
				c0-0.8-0.1-1.5-0.2-2c-0.1-0.5-0.3-1-0.6-1.3c-0.3-0.3-0.5-0.6-0.9-0.7c-0.3-0.1-0.7-0.2-1.1-0.2c-0.4,0-0.7,0.1-1,0.2
				c-0.3,0.1-0.6,0.3-0.9,0.7c-0.2,0.3-0.4,0.8-0.6,1.3c-0.1,0.6-0.2,1.2-0.2,2.1c0,0.8,0.1,1.5,0.2,2c0.1,0.5,0.3,0.9,0.5,1.2
				c0.2,0.3,0.5,0.5,0.9,0.7c0.3,0.1,0.7,0.2,1.1,0.2c0.3,0,0.7-0.1,1-0.2s0.6-0.4,0.8-0.7c0.3-0.3,0.4-0.8,0.6-1.3
				C833.3,576.7,833.4,576,833.4,575.1z"/>
			<path class="st0" d="M849,572.3h-0.4c-0.2-0.1-0.4-0.1-0.7-0.1c-0.3,0-0.7,0-1,0c-0.4,0-0.9,0.1-1.4,0.2c-0.5,0.1-1,0.3-1.4,0.5
				l0,9.2l-4.3,0l0-13.7l4.3,0l0,2c0.2-0.2,0.5-0.4,0.8-0.7c0.3-0.3,0.7-0.5,0.9-0.7c0.3-0.2,0.7-0.3,1.1-0.5
				c0.4-0.1,0.8-0.2,1.2-0.2c0.1,0,0.3,0,0.5,0c0.2,0,0.3,0,0.5,0L849,572.3z"/>
			<path class="st0" d="M866.7,581.9l0-6.8c0-0.7,0-1.2,0-1.7c0-0.5-0.1-0.8-0.2-1.1s-0.3-0.5-0.6-0.6s-0.6-0.2-1.1-0.2
				c-0.3,0-0.6,0.1-1,0.2c-0.3,0.1-0.7,0.3-1,0.6l0,9.7l-4.3,0l0-6.8c0-0.7,0-1.2,0-1.7c0-0.5-0.1-0.8-0.2-1.1s-0.3-0.5-0.6-0.6
				s-0.6-0.2-1.1-0.2c-0.3,0-0.7,0.1-1,0.2c-0.3,0.2-0.7,0.4-1,0.6l0,9.7l-4.3,0l0-13.7l4.3,0l0,1.5c0.7-0.6,1.4-1.1,2-1.4
				c0.6-0.3,1.3-0.5,2.1-0.5c0.8,0,1.6,0.2,2.2,0.6s1.1,1,1.5,1.8c0.8-0.8,1.6-1.4,2.3-1.8s1.5-0.6,2.2-0.6c0.6,0,1.2,0.1,1.7,0.3
				c0.5,0.2,0.9,0.5,1.3,0.9c0.4,0.4,0.7,1,0.9,1.6c0.2,0.6,0.3,1.4,0.3,2.4l0,8.9L866.7,581.9z"/>
		</g>
	</g>
</g>
</svg>
