<?xml version="1.0" encoding="utf-8"?>
<!-- Generator: Adobe Illustrator 21.1.0, SVG Export Plug-In . SVG Version: 6.00 Build 0)  -->
<svg version="1.1" id="레이어_1" xmlns="http://www.w3.org/2000/svg" xmlns:xlink="http://www.w3.org/1999/xlink" x="0px"
	 y="0px" viewBox="0 0 204 148" style="enable-background:new 0 0 204 148;" xml:space="preserve">
<style type="text/css">
	.st0{opacity:0.5;}
	.st1{fill:#FFFFFF;}
</style>
<g class="st0">
	<path class="st1" d="M186.4,139c-1.1,0-2.2-0.1-3.2-0.4L14.4,96.5C8.5,95.1,4.3,89.8,4.3,83.7V22.3c0-4.1,1.9-7.9,5.1-10.4
		c3.2-2.5,7.4-3.4,11.4-2.4l168.8,42.1c5.9,1.5,10.1,6.8,10.1,12.9v61.4c0,4.1-1.9,7.9-5.1,10.4C192.2,138,189.3,139,186.4,139z
		 M14.9,94.6l168.8,42.1c3.4,0.8,6.9,0.1,9.7-2.1c2.7-2.1,4.3-5.4,4.3-8.9V64.3c0-5.2-3.5-9.7-8.5-10.9L20.3,11.3
		c-3.4-0.8-6.9-0.1-9.7,2.1c-2.7,2.1-4.3,5.4-4.3,8.9v61.4C6.3,88.9,9.9,93.4,14.9,94.6L14.9,94.6z"/>
	<path class="st1" d="M17.6,139c-2.9,0-5.8-1-8.1-2.8c-3.2-2.5-5.1-6.3-5.1-10.4V64.3c0-6.1,4.1-11.4,10.1-12.9L183.2,9.4
		c4-1,8.1-0.1,11.4,2.4c3.2,2.5,5.1,6.3,5.1,10.4v61.4c0,6.1-4.1,11.4-10.1,12.9L20.8,138.6C19.7,138.9,18.7,139,17.6,139z
		 M186.4,11c-0.9,0-1.8,0.1-2.7,0.3L14.9,53.4c-5,1.3-8.5,5.7-8.5,10.9v61.4c0,3.5,1.6,6.7,4.3,8.9c2.8,2.1,6.3,2.9,9.7,2.1
		l168.8-42.1c5-1.3,8.5-5.7,8.5-10.9V22.3c0-3.5-1.6-6.7-4.3-8.9C191.3,11.8,188.9,11,186.4,11z"/>
	<path class="st1" d="M102,118.4l-0.2-0.1L14.4,96.5C8.5,95.1,4.3,89.8,4.3,83.7V64.3c0-6.1,4.1-11.4,10.1-12.9L102,29.6l0.2,0.1
		l87.4,21.8c5.9,1.5,10.1,6.8,10.1,12.9v19.4c0,6.1-4.1,11.4-10.1,12.9L102,118.4z M102,31.7L14.9,53.4c-5,1.3-8.5,5.7-8.5,10.9
		v19.4c0,5.2,3.5,9.7,8.5,10.9l87.1,21.7l87.1-21.7c5-1.3,8.5-5.7,8.5-10.9V64.3c0-5.2-3.5-9.7-8.5-10.9L102,31.7z"/>
</g>
</svg>
